Coordinates
version=1
nRows=16
nColumns=36
inDegrees=yes

Units are S.I. units (second, meters, Newtons, ...)
If the header above contains a line with 'inDegrees', this indicates whether rotational values are in degrees (yes) or radians (no).

endheader
time	pelvis_tilt	pelvis_list	pelvis_rotation	pelvis_tx	pelvis_ty	pelvis_tz	hip_flexion_r	hip_adduction_r	hip_rotation_r	knee_angle_r	knee_angle_r_beta	ankle_angle_r	subtalar_angle_r	mtp_angle_r	hip_flexion_l	hip_adduction_l	hip_rotation_l	knee_angle_l	knee_angle_l_beta	ankle_angle_l	subtalar_angle_l	mtp_angle_l	lumbar_extension	lumbar_bending	lumbar_rotation	arm_flex_r	arm_add_r	arm_rot_r	elbow_flex_r	pro_sup_r	arm_flex_l	arm_add_l	arm_rot_l	elbow_flex_l	pro_sup_l
      0.00000000	     -2.23395877	     -0.82547430	      0.93650620	      0.82203823	      1.01644428	     -0.02221455	      0.15366768	     -6.13999356	    -10.20511004	      2.40726891	      0.04201477	      4.32443218	     -2.44859313	     -7.21239567	     -1.78839077	     -8.03019645	     -2.38613430	      0.58103042	      0.01014089	      6.10093605	     -2.89895116	     -7.21239567	      0.27346381	      0.96086333	      1.43649826	     32.04462854	     -4.08049452	     57.84188933	    120.40592803	     80.99459918	     26.96143272	      2.03052041	     66.09957631	    119.26998301	     93.09715406
      0.01666670	     -1.52648456	     -0.02220127	      0.56419848	      0.82477389	      1.01535791	     -0.02820197	     -0.46596432	     -7.25743431	    -10.54765510	      2.87467166	      0.05017249	      5.75982287	     -2.04570924	     -7.28281546	     -2.46662848	     -7.09719389	     -3.48470835	      1.30722423	      0.02281537	      5.21500929	     -4.29421452	     -7.28281546	     -1.46157831	      0.82922750	      3.01546273	     35.47852913	     -7.68859184	     67.74190116	    125.87754483	     96.30240511	     27.05072641	      0.91330602	     63.59408275	    123.62132183	    104.52235098
      0.03333330	     -1.12280182	     -0.03234170	      0.78470761	      0.83030488	      1.01735213	     -0.02533043	     -0.87302360	     -7.20835460	    -10.85857280	      3.34342590	      0.05835379	      6.24342948	     -2.76255337	     -7.28736211	     -2.89373998	     -7.15676502	     -3.64204947	      1.68108482	      0.02934047	      5.38833226	     -4.61095344	     -7.28736211	     -1.62198456	      0.85876941	      2.16904884	     34.84796199	     -5.66302697	     66.02582467	    125.71272204	     96.76826650	     26.71483434	      0.22295314	     63.36961744	    124.07112260	    105.17529890
      0.05000000	     -1.14191110	      0.13282390	      1.00953787	      0.81713113	      1.01582988	     -0.02551637	     -0.40159787	     -7.55390506	    -11.58623406	      3.92416413	      0.06848958	      6.62324098	     -3.10944311	     -7.28849380	     -2.30626283	     -7.05127451	     -3.82917013	      2.33061901	      0.04067698	      5.81967373	     -4.72541669	     -7.28849380	     -2.18286077	      0.62053333	      2.02775153	     35.07331973	     -4.32142708	     65.67157959	    125.42999469	     96.91373707	     27.98181293	      0.51043021	     62.77542753	    124.20614312	    105.29347629
      0.06666670	     -0.89410030	      0.30405666	      1.56526860	      0.82261418	      1.01670300	     -0.02914512	     -0.59927859	     -7.89280208	    -12.56885964	      4.43066668	      0.07732972	      7.46024613	     -2.99209958	     -7.29607421	     -2.25220568	     -6.93256241	     -3.80479266	      2.71665225	      0.04741453	      6.25449658	     -4.15441126	     -7.29607421	     -2.62904528	      0.62645849	      0.65782507	     35.18543461	     -3.05894854	     65.10429141	    123.93380307	     97.87012295	     28.35951036	      0.18033354	     61.63734260	    124.56924082	    105.69210028
      0.08333330	     -0.51924758	      0.42557508	      1.67635742	      0.82819195	      1.02002250	     -0.02606750	     -1.01149777	     -8.12581222	    -12.99278984	      4.68950517	      0.08184731	      7.65265784	     -3.36949307	     -7.30139254	     -2.69144770	     -6.89924271	     -3.91523667	      2.70997239	      0.04729794	      6.02132396	     -3.93174908	     -7.30139254	     -3.17789810	      0.55856262	      0.43673459	     34.97279964	     -2.57024708	     65.44928737	    123.37305650	     98.34430964	     28.27052425	      0.09250242	     61.05048384	    124.47707340	    105.59474882
      0.10000000	     -0.53628924	      0.56865211	      1.72183609	      0.82110121	      1.01929208	     -0.02956422	     -0.93262441	     -8.39555362	    -13.35175328	      4.86308627	      0.08487687	      7.66598116	     -3.67509392	     -7.30275565	     -2.66416479	     -6.74961609	     -3.96734660	      2.72211203	      0.04750982	      5.89854528	     -3.78280351	     -7.30275565	     -3.34878703	      0.55410459	      0.42683011	     35.07764406	     -2.49201310	     65.64239210	    123.17563672	     98.43503672	     28.70293395	      0.37388184	     60.75910569	    124.53112631	    105.48812198
      0.11666670	     -0.43931938	      0.68496858	      1.87742381	      0.82095077	      1.02185618	     -0.02940156	     -1.06349537	     -8.57532248	    -13.36653556	      4.91772556	      0.08583050	      7.56978486	     -4.25798650	     -7.31874866	     -2.75253341	     -6.64345142	     -4.17831666	      2.67768089	      0.04673435	      5.72006811	     -3.45483024	     -7.31874866	     -3.70123895	      0.54683704	      0.31641207	     35.27048744	     -2.54667560	     65.90790851	    123.00358764	     97.55119930	     28.92482246	      0.39597833	     60.57881403	    124.46907282	    104.21332659
      0.13333330	     -0.27063506	      0.79555790	      1.99653776	      0.82663797	      1.01710069	     -0.03254027	     -1.39589680	     -8.75089341	    -13.56508345	      4.82753106	      0.08425631	      7.53631752	     -4.43139740	     -7.32365541	     -3.06352857	     -6.49592519	     -4.19621230	      2.48741167	      0.04341352	      5.51297486	     -3.28135708	     -7.32365541	     -3.74404210	      0.58293883	      0.17196550	     35.31567325	     -2.59990080	     65.81451830	    123.25349775	     97.34620756	     29.04584241	      0.79529424	     60.34698239	    124.43149868	    102.41697366
      0.15000000	     -0.27485894	      0.79733054	      2.00744367	      0.82042975	      1.01689726	     -0.02933895	     -1.39679988	     -8.75285091	    -13.56901144	      4.82276062	      0.08417305	      7.53878196	     -4.43505378	     -7.32366437	     -3.03711995	     -6.49900632	     -4.19821485	      2.47419912	      0.04318292	      5.51310654	     -3.28212787	     -7.32366437	     -3.73832160	      0.59364491	      0.16902888	     35.31689552	     -2.60031500	     65.81433856	    123.25468261	     97.34623019	     29.04913450	      0.80277766	     60.34683291	    124.43289726	    102.41617356
      0.16666670	     -0.33723317	      0.96873405	      2.25848782	      0.81991715	      1.01684047	     -0.03549498	     -1.34028677	     -8.99100094	    -13.89048488	      4.87917621	      0.08515769	      7.65380767	     -4.85579425	     -7.32438527	     -2.89441298	     -6.27212508	     -4.19485369	      2.43911105	      0.04257052	      5.24192726	     -3.20569553	     -7.32438527	     -3.85580123	      0.58103470	     -0.00889464	     35.80891923	     -2.71752948	     65.63809294	    123.35479694	     97.33545605	     29.59906595	      1.25597580	     60.12612671	    124.56904832	    102.32700466
      0.18333330	     -0.32682107	      0.96617832	      2.27353094	      0.82619509	      1.01525135	     -0.03241887	     -1.35470330	     -8.99012206	    -13.89410537	      4.88799871	      0.08531167	      7.65199469	     -4.86035434	     -7.32439601	     -2.91185214	     -6.26414642	     -4.19404778	      2.44870544	      0.04273797	      5.23879804	     -3.20639989	     -7.32439601	     -3.85943539	      0.59552005	     -0.01491267	     35.81018178	     -2.72184825	     65.63646945	    123.35874492	     97.33509984	     29.60116336	      1.26074003	     60.12577748	    124.56810001	    102.32563802
      0.20000000	     -0.33703422	      0.97146091	      2.27895837	      0.81928864	      1.01478127	     -0.02971852	     -1.35552860	     -8.98025624	    -13.90121376	      4.88690634	      0.08529261	      7.65337742	     -4.86739460	     -7.32440675	     -2.90500910	     -6.26082014	     -4.19215259	      2.44117983	      0.04260663	      5.23790200	     -3.20709577	     -7.32440675	     -3.84759774	      0.60124428	     -0.01702835	     35.81217261	     -2.71999123	     65.63616986	    123.36338474	     97.33466998	     29.60282187	      1.26686294	     60.12663479	    124.57075376	    102.32419341
      0.21666670	     -0.13435120	      1.04283195	      2.38161763	      0.82591016	      1.01590511	     -0.03277176	     -1.51349620	     -9.07640385	    -14.14962762	      5.13618074	      0.08964326	      7.66896044	     -5.39115969	     -7.32539091	     -3.15190492	     -6.18562444	     -3.97731169	      2.42026560	      0.04224160	      5.06149711	     -3.29913343	     -7.32539091	     -4.03849637	      0.55226662	     -0.00553832	     36.21496297	     -2.70088160	     65.45399128	    123.77373907	     97.28517691	     29.69236434	      1.40053861	     60.08699740	    124.74442834	    102.17249788
      0.23333330	      0.27974589	      1.08294707	      2.42432199	      0.82524560	      1.01628565	     -0.03325727	     -2.04416130	     -9.09043163	    -14.00242825	      5.09337508	      0.08889617	      7.48237824	     -5.82192234	     -7.37631293	     -3.66515298	     -6.14174486	     -3.54609446	      2.33180987	      0.04069776	      4.68998178	     -4.06629073	     -7.37631293	     -4.50771931	      0.46919851	     -0.07440788	     36.17689950	     -2.83100970	     65.68347943	    124.15027921	     93.57254536	     30.12258605	      1.71085210	     60.94184015	    124.75706520	     96.48746108
      0.25000000	      0.35207698	      1.08366001	      2.38626497	      0.82511755	      1.01414562	     -0.03294203	     -2.11190852	     -9.08629063	    -13.92711379	      5.15209359	      0.08992100	      7.46896113	     -6.11752184	     -7.42122755	     -3.82130214	     -6.13703938	     -3.62486478	      2.28064665	      0.03980479	      4.64251910	     -4.03675862	     -7.42122755	     -4.51899740	      0.47337707	     -0.25428971	     36.17789173	     -2.64196358	     65.65493454	    124.12529680	     95.82800276	     30.19529279	      1.91731053	     61.15876150	    124.86437869	     97.41380396
